<svg width="1000" height="1000" viewBox="0 0 1000 1000" fill="none" xmlns="http://www.w3.org/2000/svg">
<path d="M325.13 256.018C332.381 244.382 354.799 221.117 365.641 213.867M244.2 260.81C261.148 240.831 316 195 328 210M362.5 256.018C408 301.5 330.783 462.993 315.835 497.059C300.887 531.124 231.083 666.546 280.025 725.549C328.967 784.552 554.796 563.526 537.76 513.232C520.723 462.938 422.403 659.539 485.516 702.639C548.629 745.738 983.021 280.249 906.5 243C829.979 205.751 575.903 757.463 699.184 765.167C822.466 772.872 888.333 602.94 864.182 631.286C840.03 659.633 812.177 754.003 819.049 773.245C823.976 787.041 842.673 779.365 847.967 774.848M11.9011 579.132C144.87 400.852 391.195 149.994 396.437 186.902C401.679 223.81 275.717 298.179 11.9011 579.132Z" stroke="black" stroke-width="11"/>
<path d="M553.648 431.066C548.472 428.014 547.351 424.613 551.648 412.566C556.714 399.71 559.854 399.305 565.648 403.066C572.158 406.714 573.148 408.066 569.148 420.066C563.982 435.566 558.089 434.443 553.648 431.066Z" fill="#090909"/>
<path d="M553.648 431.066L553.951 430.668L553.927 430.651L553.902 430.636L553.648 431.066ZM551.648 412.566L551.183 412.383L551.18 412.391L551.177 412.398L551.648 412.566ZM565.648 403.066L565.376 403.486L565.39 403.495L565.404 403.503L565.648 403.066ZM569.148 420.066L569.623 420.224L569.148 420.066ZM553.902 430.636C551.378 429.147 549.95 427.643 549.591 425.119C549.22 422.515 549.97 418.759 552.119 412.734L551.177 412.398C549.029 418.421 548.191 422.388 548.601 425.26C549.021 428.211 550.742 429.933 553.394 431.497L553.902 430.636ZM552.113 412.75C553.375 409.547 554.509 407.142 555.584 405.391C556.662 403.635 557.657 402.577 558.625 402.017C560.487 400.942 562.473 401.601 565.376 403.486L565.92 402.647C563.029 400.77 560.549 399.751 558.125 401.152C556.95 401.83 555.849 403.049 554.732 404.867C553.612 406.691 552.454 409.157 551.183 412.383L552.113 412.75ZM565.404 403.503C568.695 405.347 570.352 406.502 570.854 408.553C571.109 409.598 571.075 410.923 570.714 412.764C570.352 414.602 569.672 416.912 568.674 419.908L569.623 420.224C570.624 417.221 571.32 414.861 571.695 412.957C572.069 411.055 572.131 409.564 571.825 408.315C571.204 405.778 569.112 404.434 565.893 402.63L565.404 403.503ZM568.674 419.908C566.097 427.64 563.388 431.05 560.917 432.191C558.505 433.304 556.131 432.326 553.951 430.668L553.346 431.464C555.606 433.183 558.4 434.454 561.336 433.099C564.213 431.77 567.034 427.992 569.623 420.224L568.674 419.908Z" fill="black"/>
<path d="M883.747 573.649C878.461 570.233 877.316 566.426 881.705 552.944C886.878 538.556 890.086 538.103 896.003 542.313C902.652 546.395 903.663 547.908 899.578 561.338C894.302 578.684 888.283 577.427 883.747 573.649Z" fill="#090909"/>
<path d="M883.747 573.649L884.067 573.264L884.044 573.245L884.019 573.229L883.747 573.649ZM881.705 552.944L881.234 552.775L881.232 552.782L881.229 552.79L881.705 552.944ZM896.003 542.313L895.713 542.72L895.727 542.73L895.742 542.739L896.003 542.313ZM899.578 561.338L900.056 561.484L899.578 561.338ZM884.019 573.229C882.723 572.391 881.714 571.551 880.981 570.569C880.254 569.595 879.783 568.46 879.594 567.007C879.211 564.066 879.986 559.84 882.18 553.099L881.229 552.79C879.035 559.531 878.188 563.949 878.602 567.136C878.811 568.747 879.343 570.046 880.18 571.168C881.012 572.282 882.129 573.198 883.476 574.069L884.019 573.229ZM882.175 553.114C883.465 549.527 884.624 546.83 885.726 544.865C886.83 542.894 887.851 541.704 888.843 541.077C889.805 540.467 890.776 540.365 891.871 540.657C892.994 540.958 894.244 541.675 895.713 542.72L896.293 541.905C894.803 540.845 893.433 540.04 892.129 539.691C890.797 539.335 889.533 539.456 888.308 540.232C887.11 540.99 885.99 542.348 884.853 544.377C883.713 546.412 882.531 549.167 881.234 552.775L882.175 553.114ZM895.742 542.739C899.091 544.795 900.807 546.095 901.328 548.429C901.593 549.619 901.556 551.119 901.186 553.185C900.815 555.249 900.12 557.839 899.1 561.193L900.056 561.484C901.079 558.122 901.789 555.486 902.17 553.362C902.551 551.239 902.611 549.588 902.304 548.211C901.678 545.409 899.565 543.912 896.265 541.887L895.742 542.739ZM899.1 561.193C897.788 565.506 896.437 568.637 895.089 570.851C893.741 573.067 892.413 574.335 891.159 574.969C888.713 576.207 886.302 575.126 884.067 573.264L883.427 574.033C885.729 575.95 888.595 577.387 891.611 575.861C893.088 575.114 894.538 573.68 895.944 571.371C897.35 569.06 898.73 565.843 900.056 561.484L899.1 561.193Z" fill="black"/>
</svg>
