<svg width="508" height="503" viewBox="0 0 508 503" fill="none" xmlns="http://www.w3.org/2000/svg">
<circle cx="256.5" cy="251.5" r="251.5" fill="#FF001A"/>
<path d="M125.901 156.369C132.525 146.321 153.371 121.315 161.305 128.563M182.717 145.329C205.982 163.553 179.703 241.468 174.77 257.83C169.838 274.191 145.497 339.808 171.079 364.007C196.662 388.206 271.523 295.472 276.867 252.929C282.211 210.386 238.764 342.833 269.929 358.996C301.094 375.159 467.027 122.054 430.071 109.3C393.116 96.5471 307.771 362.193 364.416 358.887C421.061 355.581 441.698 274.445 432.252 288.707C422.807 302.97 415.325 347.546 419.524 355.94C422.534 361.958 430.635 357.424 432.799 355.071M40.7105 312.07C91.4851 223.415 189.937 95.3928 194.37 111.934C198.802 128.474 145.474 169.356 40.7105 312.07Z" stroke="white" stroke-width="11" stroke-linecap="square"/>
<path d="M443.353 244.235C440.024 241.959 439.085 239.901 440.509 233.621C442.064 227.957 443.613 227.562 446.99 229.356C451.235 232.375 449.488 236.904 448.629 239.03C447.769 241.156 446.196 244.974 443.353 244.235Z" fill="white"/>
<path d="M284.689 197.98C281.36 195.703 281.181 194.706 282.605 188.425C284.16 182.762 285.34 183.06 287.594 183.929C293.107 186.052 290.894 190.914 290.035 193.04C289.176 195.166 287.532 198.719 284.689 197.98Z" fill="white"/>
<path d="M443.353 244.235C440.024 241.959 439.085 239.901 440.509 233.621C442.064 227.957 443.613 227.562 446.99 229.356C451.235 232.375 449.488 236.904 448.629 239.03C447.769 241.156 446.196 244.974 443.353 244.235Z" stroke="white" stroke-width="10"/>
<path d="M284.689 197.98C281.36 195.703 281.181 194.706 282.605 188.425C284.16 182.762 285.34 183.06 287.594 183.929C293.107 186.052 290.894 190.914 290.035 193.04C289.176 195.166 287.532 198.719 284.689 197.98Z" stroke="white" stroke-width="10"/>
<path d="M169.501 141.289C173.183 136.659 173.058 136.743 176.378 133.406" stroke="white" stroke-width="2"/>
</svg>
