<svg width="496" height="402" viewBox="0 0 496 402" fill="none" xmlns="http://www.w3.org/2000/svg">
<path d="M125.901 106.369C132.525 96.3211 153.371 71.3145 161.305 78.5634M182.717 95.3294C205.981 113.553 179.702 191.468 174.77 207.83C169.838 224.191 145.497 289.808 171.079 314.007C196.662 338.206 271.523 245.472 276.867 202.929C282.211 160.386 238.764 292.833 269.929 308.996C301.094 325.159 467.027 72.0535 430.071 59.3003C393.116 46.5471 307.771 312.193 364.416 308.887C421.061 305.581 441.698 224.445 432.252 238.707C422.807 252.97 415.325 297.546 419.523 305.94C422.534 311.958 430.635 307.424 432.799 305.071M40.7104 262.07C91.485 173.415 189.937 45.3928 194.369 61.9336C198.802 78.4744 145.474 119.356 40.7104 262.07Z" stroke="black" stroke-width="11" stroke-linecap="square"/>
<path d="M443.353 194.235C440.024 191.959 439.085 189.901 440.509 183.621C442.064 177.957 443.613 177.562 446.99 179.356C451.235 182.375 449.488 186.904 448.629 189.03C447.769 191.156 446.196 194.974 443.353 194.235Z" fill="black"/>
<path d="M284.689 147.98C281.36 145.703 281.181 144.706 282.605 138.425C284.16 132.762 285.34 133.06 287.594 133.929C293.107 136.052 290.894 140.914 290.035 143.04C289.176 145.166 287.532 148.719 284.689 147.98Z" fill="black"/>
<path d="M443.353 194.235C440.024 191.959 439.085 189.901 440.509 183.621C442.064 177.957 443.613 177.562 446.99 179.356C451.235 182.375 449.488 186.904 448.629 189.03C447.769 191.156 446.196 194.974 443.353 194.235Z" stroke="black" stroke-width="10"/>
<path d="M284.689 147.98C281.36 145.703 281.181 144.706 282.605 138.425C284.16 132.762 285.34 133.06 287.594 133.929C293.107 136.052 290.894 140.914 290.035 143.04C289.176 145.166 287.532 148.719 284.689 147.98Z" stroke="black" stroke-width="10"/>
<path d="M169.501 91.2886C173.183 86.659 173.058 86.7427 176.378 83.4059" stroke="black" stroke-width="2"/>
</svg>
