<svg width="503" height="503" viewBox="0 0 503 503" fill="none" xmlns="http://www.w3.org/2000/svg">
<path fill-rule="evenodd" clip-rule="evenodd" d="M251.5 503C390.4 503 503 390.4 503 251.5C503 112.6 390.4 0 251.5 0C112.6 0 0 112.6 0 251.5C0 390.4 112.6 503 251.5 503ZM157.422 162.144C148.199 172.883 137.276 185.601 124.693 200.716C131.017 192.072 137.254 183.747 143.28 175.904C158.994 155.45 173.158 138.416 183.593 127.574C186.195 124.871 188.495 122.626 190.477 120.839C189.469 122.583 188.154 124.591 186.492 126.91C184.929 129.09 183.116 131.469 181.048 134.073L179.669 132.7C176.578 135.807 176.416 136.01 173.529 139.646C173.28 139.96 173.011 140.298 172.718 140.666L174.284 141.911C174.584 141.533 174.859 141.187 175.113 140.868C177.842 137.43 178.059 137.157 180.745 134.454C175.126 141.51 167.672 150.209 158.316 161.103L157.422 162.144ZM203.682 110.51C203.326 109.183 202.562 107.594 200.999 106.413C199.406 105.209 197.629 104.914 196.186 104.989C193.667 105.119 191.314 106.409 189.579 107.537C185.801 109.993 181.029 114.376 175.668 119.946C173.967 121.712 172.178 123.63 170.31 125.686L169.015 124.503C164.483 120.363 158.803 121.692 155.03 123.454C151.065 125.305 147.003 128.537 143.347 131.97C135.953 138.912 128.817 148.02 125.309 153.342L122.282 157.934L131.466 163.988L134.493 159.396C137.609 154.67 144.207 146.251 150.876 139.99C154.251 136.821 157.303 134.532 159.685 133.42C160.858 132.873 161.475 132.766 161.747 132.763L163.028 133.933C154.517 143.814 144.821 155.843 134.557 169.203C102.935 210.363 65.4784 264.741 39.9377 309.336L49.1441 315.324C100.803 244.952 139.911 199.416 165.769 169.308L166.661 168.27C172.777 161.149 178.181 154.85 182.834 149.274L183.325 149.659C187.253 152.736 189.798 158.998 190.498 168.691C191.181 178.149 190.01 189.59 187.904 201.305C184.267 221.541 178.039 241.602 174.79 252.067L174.789 252.072C174.28 253.71 173.845 255.112 173.504 256.242C173.091 257.613 172.521 259.386 171.843 261.498L171.841 261.503L171.84 261.507L171.839 261.508C168.634 271.484 163.008 288.989 160.054 307.093C158.258 318.096 157.383 329.657 158.713 340.197C160.042 350.724 163.646 360.762 171.3 368.002C180.535 376.738 193.243 373.817 204.325 367.648C215.799 361.261 228.201 350.093 239.679 337.144C245.935 330.085 252 322.403 257.574 314.515C257.16 319.772 256.983 324.916 257.119 329.776C257.324 337.086 258.243 344.055 260.315 349.893C262.386 355.726 265.818 360.985 271.397 363.879C275.192 365.847 279.365 365.423 283.002 364.215C286.675 362.996 290.557 360.743 294.502 357.884C302.42 352.144 311.619 343.194 321.396 332.259C328.965 323.794 336.991 314.012 345.171 303.376C344.581 308.982 344.209 314.331 344.082 319.351C343.77 331.719 344.914 342.747 348.416 350.785C350.196 354.872 352.709 358.472 356.226 360.972C359.821 363.527 364.071 364.65 368.736 364.378C389.352 363.174 405.377 352.613 417.155 339.954C417.053 341.226 416.974 342.459 416.919 343.645C416.783 346.582 416.791 349.329 416.998 351.704C417.193 353.933 417.602 356.396 418.604 358.4C419.987 361.165 422.196 363.062 424.906 363.918C427.423 364.714 429.895 364.465 431.826 363.977C435.536 363.039 439.041 360.758 440.847 358.795L444.571 354.747L436.475 347.3L432.751 351.347C432.752 351.347 432.744 351.355 432.727 351.372C432.71 351.388 432.684 351.413 432.648 351.446C432.617 351.474 432.58 351.506 432.538 351.542C432.486 351.585 432.426 351.634 432.358 351.687C432.109 351.88 431.791 352.1 431.42 352.321C430.652 352.778 429.836 353.134 429.131 353.312C428.805 353.395 428.573 353.422 428.423 353.429C428.39 353.342 428.322 353.138 428.243 352.78C428.133 352.28 428.032 351.608 427.957 350.748C427.806 349.023 427.785 346.798 427.907 344.154C428.152 338.875 428.951 332.32 430.184 325.502C430.422 324.183 430.676 322.858 430.944 321.536C431.258 321.017 431.565 320.5 431.866 319.985C437.619 310.145 441.289 300.778 442.921 294.594C443.331 293.039 443.638 291.591 443.806 290.327C443.943 289.289 444.102 287.634 443.687 286.077C443.496 285.36 442.865 283.428 440.798 282.27C438.396 280.925 436.125 281.7 435.085 282.254C434.073 282.792 433.358 283.52 432.946 283.982C432.478 284.507 432.051 285.09 431.666 285.67C428.869 289.895 426.446 295.952 424.436 302.416C422.973 307.12 421.666 312.248 420.566 317.413C409.674 334.798 392.268 351.986 368.096 353.396C365.68 353.537 363.959 352.972 362.599 352.006C361.161 350.984 359.735 349.227 358.5 346.392C355.971 340.585 354.779 331.502 355.079 319.629C355.337 309.426 356.678 297.642 358.878 284.959C367.433 273.105 375.973 260.609 384.16 247.984C404.626 216.426 423.059 183.806 434.076 158.138C439.555 145.373 443.371 133.943 444.532 125.068C445.109 120.657 445.104 116.375 443.949 112.724C442.716 108.828 440.108 105.565 435.865 104.101C431.855 102.717 427.844 103.382 424.277 105.062C420.791 106.705 417.467 109.422 414.337 112.702C408.07 119.27 401.65 129.096 395.405 140.792C382.864 164.278 370.374 196.56 360.865 229.004C355.749 246.462 351.457 264.099 348.487 280.554C336.325 297.297 324.223 312.593 313.196 324.928C303.611 335.648 295.022 343.92 288.045 348.978C284.542 351.517 281.7 353.057 279.536 353.776C277.337 354.506 276.561 354.166 276.461 354.114C274.249 352.966 272.221 350.551 270.682 346.214C269.144 341.881 268.303 336.183 268.114 329.468C267.798 318.184 269.341 304.877 271.691 292.173C279.349 278.399 284.927 264.739 286.324 253.614C286.669 250.866 286.848 248.6 286.827 246.863C286.816 246.016 286.757 245.062 286.555 244.15C286.434 243.603 285.957 241.447 283.916 240.06C282.655 239.204 281.16 238.897 279.734 239.117C278.472 239.311 277.552 239.866 277.026 240.25C276.022 240.983 275.348 241.912 274.973 242.47C274.137 243.717 273.336 245.377 272.591 247.135C269.563 254.276 265.52 267.729 262.334 282.811C261.949 284.633 261.575 286.487 261.215 288.362C261.147 288.484 261.078 288.605 261.008 288.726L260.905 288.907C252.929 302.868 242.493 317.385 231.447 329.848C220.343 342.376 208.899 352.513 198.975 358.037C188.658 363.779 182.415 363.375 178.859 360.011C173.722 355.152 170.775 347.913 169.627 338.82C168.48 329.739 169.201 319.337 170.91 308.865C173.712 291.693 178.989 275.243 182.225 265.156C182.947 262.905 183.568 260.972 184.036 259.417C184.357 258.354 184.774 257.01 185.268 255.421L185.268 255.42L185.269 255.42C188.493 245.043 194.959 224.235 198.731 203.251C200.903 191.164 202.248 178.687 201.469 167.899C200.707 157.345 197.813 147.035 190.108 141L189.791 140.751C191.913 138.073 193.796 135.601 195.433 133.318C198.528 129 200.938 125.092 202.415 121.54C203.883 118.009 204.679 114.231 203.682 110.51ZM161.922 132.793C161.917 132.802 161.869 132.8 161.794 132.763C161.89 132.767 161.927 132.785 161.922 132.793ZM374.931 241.999C371.537 247.232 368.087 252.436 364.603 257.575C366.626 249.191 368.916 240.646 371.421 232.098C380.788 200.138 393.023 168.606 405.108 145.973C411.175 134.611 417.043 125.801 422.296 120.295C424.926 117.539 427.17 115.859 428.965 115.013C430.681 114.205 431.667 114.289 432.277 114.499C432.654 114.629 433.08 114.839 433.461 116.043C433.921 117.494 434.109 119.941 433.625 123.64C432.664 130.984 429.335 141.294 423.968 153.799C413.293 178.67 395.224 210.708 374.931 241.999ZM284.164 248.52C284.163 248.523 284.152 248.539 284.129 248.567C284.154 248.532 284.166 248.517 284.164 248.52ZM288.689 197.98C285.359 195.703 285.181 194.705 286.605 188.425C288.16 182.762 289.34 183.06 291.594 183.928C296.916 185.978 295.038 190.58 294.129 192.809L294.121 192.828L294.112 192.851C294.085 192.916 294.06 192.979 294.035 193.039C293.176 195.166 291.532 198.718 288.689 197.98ZM447.353 244.235C444.024 241.958 443.085 239.901 444.509 233.621C446.064 227.957 447.613 227.562 450.99 229.356C455.234 232.375 453.488 236.903 452.629 239.029C451.769 241.155 450.196 244.974 447.353 244.235Z" fill="#FF001A"/>
</svg>
